<svg width="24" height="24" viewBox="0 0 24 24" fill="none" xmlns="http://www.w3.org/2000/svg">
<path fill-rule="evenodd" clip-rule="evenodd" d="M19.8999 11.9996C19.8999 11.5026 19.497 11.0996 18.9999 11.0996H4.99991C4.50285 11.0996 4.09991 11.5026 4.09991 11.9996C4.09991 12.4967 4.50285 12.8996 4.99991 12.8996H18.9999C19.497 12.8996 19.8999 12.4967 19.8999 11.9996Z" fill="#1C1C1C"/>
<path fill-rule="evenodd" clip-rule="evenodd" d="M12.6363 4.36321C12.2848 4.01174 11.715 4.01174 11.3635 4.36321L4.36351 11.3632C4.01204 11.7147 4.01204 12.2845 4.36351 12.636L11.3635 19.636C11.715 19.9875 12.2848 19.9875 12.6363 19.636C12.9878 19.2845 12.9878 18.7147 12.6363 18.3632L6.2727 11.9996L12.6363 5.63601C12.9878 5.28453 12.9878 4.71468 12.6363 4.36321Z" fill="#1C1C1C"/>
</svg>
